<?xml version="1.0" standalone="no"?>
<!DOCTYPE svg PUBLIC "-//W3C//DTD SVG 20010904//EN"
 "http://www.w3.org/TR/2001/REC-SVG-20010904/DTD/svg10.dtd">
<svg version="1.0" xmlns="http://www.w3.org/2000/svg"
 width="1995.371887pt" height="251.361932pt" viewBox="0 0 1995.371887 251.361932"
 preserveAspectRatio="xMidYMid meet">
<metadata>
Created by potrace 1.12, written by Peter Selinger 2001-2015
</metadata>
<g transform="translate(-3.191201,253.442772) scale(0.100000,-0.100000)"
fill="#000000" stroke="none">
<path d="M8860 2529 c-1057 -41 -3301 -241 -4190 -374 -1274 -191 -2503 -411
-2840 -508 -85 -25 -227 -64 -315 -87 -762 -198 -1058 -323 -1276 -539 -167
-167 -244 -359 -190 -476 78 -172 475 -340 1016 -429 409 -67 652 -86 1170
-93 361 -4 452 -3 570 11 390 46 768 102 1245 183 1210 205 1462 244 1745 269
94 8 418 39 720 69 1142 113 1694 155 2070 155 77 0 284 9 460 19 176 11 453
25 615 31 162 5 333 12 380 15 203 10 2101 27 2570 22 495 -5 838 -20 1695
-72 1572 -96 2775 -225 3660 -390 160 -30 560 -102 810 -146 430 -75 749 -59
1002 49 51 22 74 41 127 102 58 67 66 81 76 139 6 35 7 67 3 71 -14 14 -731
299 -903 360 -91 32 -303 108 -471 168 -841 303 -1169 392 -2194 597 -2156
433 -4643 773 -6175 845 -292 14 -1117 19 -1380 9z m1040 -39 c728 -17 1477
-80 2570 -216 1680 -208 3899 -594 4967 -864 453 -115 1339 -417 2053 -701
499 -199 457 -178 452 -227 -3 -33 -16 -55 -68 -115 -63 -72 -68 -76 -162
-111 -122 -45 -216 -63 -362 -72 -227 -13 -436 16 -1378 190 -1026 190 -2465
333 -4292 426 -217 11 -484 24 -592 30 -648 33 -3750 -16 -4110 -65 -21 -3
-201 -10 -400 -15 -594 -16 -1061 -52 -2158 -164 -135 -14 -370 -37 -523 -51
-439 -40 -605 -65 -1707 -255 -537 -92 -927 -150 -1300 -195 -189 -22 -255
-25 -540 -25 -314 0 -528 9 -770 31 -898 81 -1510 298 -1510 534 0 100 82 256
191 365 188 188 493 324 1074 480 127 34 334 90 460 125 127 35 298 77 380 94
510 103 1172 218 2165 376 424 67 658 97 1330 170 131 14 695 70 1010 100 535
51 1287 108 1880 141 401 22 816 27 1340 14z"/>
</g>
</svg>
